<svg xmlns="http://www.w3.org/2000/svg" xmlns:xlink="http://www.w3.org/1999/xlink" width="2000" zoomAndPan="magnify" viewBox="0 0 1500 1499.999933" height="2000" preserveAspectRatio="xMidYMid meet" version="1.0"><defs><clipPath id="75c8896bea"><path d="M 750 0 C 335.785156 0 0 335.785156 0 750 C 0 1164.214844 335.785156 1500 750 1500 C 1164.214844 1500 1500 1164.214844 1500 750 C 1500 335.785156 1164.214844 0 750 0 Z M 750 0 " clip-rule="nonzero"/></clipPath><clipPath id="fa3f64099a"><path d="M 0 0 L 1500 0 L 1500 1500 L 0 1500 Z M 0 0 " clip-rule="nonzero"/></clipPath><clipPath id="f22be0e134"><path d="M 750 0 C 335.785156 0 0 335.785156 0 750 C 0 1164.214844 335.785156 1500 750 1500 C 1164.214844 1500 1500 1164.214844 1500 750 C 1500 335.785156 1164.214844 0 750 0 Z M 750 0 " clip-rule="nonzero"/></clipPath><clipPath id="631fc25999"><rect x="0" width="1500" y="0" height="1500"/></clipPath><clipPath id="98ffa9ef2c"><path d="M 0.28125 0.160156 L 613 0.160156 L 613 1004.320312 L 0.28125 1004.320312 Z M 0.28125 0.160156 " clip-rule="nonzero"/></clipPath><clipPath id="f88a0acd1c"><path d="M 0.28125 39 L 986.199219 39 L 986.199219 1004.320312 L 0.28125 1004.320312 Z M 0.28125 39 " clip-rule="nonzero"/></clipPath><clipPath id="0e5b3b2dfb"><path d="M 0.28125 621 L 571 621 L 571 1004.320312 L 0.28125 1004.320312 Z M 0.28125 621 " clip-rule="nonzero"/></clipPath><clipPath id="1b30ab9b75"><path d="M 388 791 L 986.199219 791 L 986.199219 1004.320312 L 388 1004.320312 Z M 388 791 " clip-rule="nonzero"/></clipPath><clipPath id="e48043be7b"><path d="M 208 617 L 754 617 L 754 1004.320312 L 208 1004.320312 Z M 208 617 " clip-rule="nonzero"/></clipPath><clipPath id="dbd69b3cca"><path d="M 349 433 L 986.199219 433 L 986.199219 1004.320312 L 349 1004.320312 Z M 349 433 " clip-rule="nonzero"/></clipPath><clipPath id="5fcaa0bf2d"><path d="M 643 0.160156 L 986.199219 0.160156 L 986.199219 329 L 643 329 Z M 643 0.160156 " clip-rule="nonzero"/></clipPath><clipPath id="94a4c85bdc"><path d="M 702 51 L 986.199219 51 L 986.199219 466 L 702 466 Z M 702 51 " clip-rule="nonzero"/></clipPath><clipPath id="78a36a750f"><path d="M 770 0.160156 L 986.199219 0.160156 L 986.199219 279 L 770 279 Z M 770 0.160156 " clip-rule="nonzero"/></clipPath><clipPath id="14f1aba823"><path d="M 770 51 L 986.199219 51 L 986.199219 279 L 770 279 Z M 770 51 " clip-rule="nonzero"/></clipPath><clipPath id="9cbe9c9dbe"><path d="M 0.300781 888.488281 L 114.328125 888.488281 L 114.328125 1002.515625 L 0.300781 1002.515625 Z M 0.300781 888.488281 " clip-rule="nonzero"/></clipPath><clipPath id="347c355875"><path d="M 57.3125 888.488281 C 25.828125 888.488281 0.300781 914.015625 0.300781 945.503906 C 0.300781 976.992188 25.828125 1002.515625 57.3125 1002.515625 C 88.800781 1002.515625 114.328125 976.992188 114.328125 945.503906 C 114.328125 914.015625 88.800781 888.488281 57.3125 888.488281 Z M 57.3125 888.488281 " clip-rule="nonzero"/></clipPath><clipPath id="afc61d90db"><path d="M 0.300781 0.488281 L 114.328125 0.488281 L 114.328125 114.515625 L 0.300781 114.515625 Z M 0.300781 0.488281 " clip-rule="nonzero"/></clipPath><clipPath id="864cbb263b"><path d="M 57.3125 0.488281 C 25.828125 0.488281 0.300781 26.015625 0.300781 57.503906 C 0.300781 88.992188 25.828125 114.515625 57.3125 114.515625 C 88.800781 114.515625 114.328125 88.992188 114.328125 57.503906 C 114.328125 26.015625 88.800781 0.488281 57.3125 0.488281 Z M 57.3125 0.488281 " clip-rule="nonzero"/></clipPath><clipPath id="8eecf2f2b7"><rect x="0" width="115" y="0" height="115"/></clipPath><clipPath id="b67c6a348c"><rect x="0" width="987" y="0" height="1005"/></clipPath></defs><g clip-path="url(#75c8896bea)"><g transform="matrix(1, 0, 0, 1, 0, 0.000000000000112861)"><g clip-path="url(#631fc25999)"><g clip-path="url(#fa3f64099a)"><g clip-path="url(#f22be0e134)"><rect x="-330" width="2160" fill="#000000" height="2159.999904" y="-329.999985" fill-opacity="1"/></g></g></g></g></g><g transform="matrix(1, 0, 0, 1, 257, 248)"><g clip-path="url(#b67c6a348c)"><path stroke-linecap="round" transform="matrix(0, -0.657343, 0.657343, 0, 36.303094, 961.14402)" fill="none" stroke-linejoin="miter" d="M 24.999251 25.002454 L 1280.343017 25.002454 " stroke="#ffffff" stroke-width="50" stroke-opacity="1" stroke-miterlimit="4"/><g clip-path="url(#98ffa9ef2c)"><path stroke-linecap="round" transform="matrix(0.26577, -0.60122, 0.60122, 0.26577, 37.707938, 954.500196)" fill="none" stroke-linejoin="miter" d="M 25.000982 24.999746 L 1406.404014 25.001379 " stroke="#ffffff" stroke-width="50" stroke-opacity="1" stroke-miterlimit="4"/></g><g clip-path="url(#f88a0acd1c)"><path stroke-linecap="round" transform="matrix(0.481706, -0.447279, 0.447279, 0.481706, 41.558572, 949.104637)" fill="none" stroke-linejoin="miter" d="M 25.002647 25.001492 L 1644.006271 24.998424 " stroke="#ffffff" stroke-width="50" stroke-opacity="1" stroke-miterlimit="4"/></g><g clip-path="url(#0e5b3b2dfb)"><path stroke-linecap="round" transform="matrix(0.605634, -0.255552, 0.255552, 0.605634, 50.92534, 930.360975)" fill="none" stroke-linejoin="miter" d="M 24.997227 24.999241 L 541.023524 25.000008 " stroke="#ffffff" stroke-width="50" stroke-opacity="1" stroke-miterlimit="4"/></g><g clip-path="url(#1b30ab9b75)"><path stroke-linecap="round" transform="matrix(0.657263, 0.0102836, -0.0102836, 0.657263, 557.789427, 961.014996)" fill="none" stroke-linejoin="miter" d="M 25.00142 24.999179 L 475.966289 24.99793 " stroke="#ffffff" stroke-width="50" stroke-opacity="1" stroke-miterlimit="4"/></g><g clip-path="url(#e48043be7b)"><path stroke-linecap="round" transform="matrix(0.464812, 0.464812, -0.464812, 0.464812, 394.687517, 780.137499)" fill="none" stroke-linejoin="miter" d="M 25.000865 25.000902 L 397.694626 24.9967 " stroke="#ffffff" stroke-width="50" stroke-opacity="1" stroke-miterlimit="4"/></g><g clip-path="url(#dbd69b3cca)"><path stroke-linecap="round" transform="matrix(0.445984, 0.482906, -0.482906, 0.445984, 536.337533, 596.167555)" fill="none" stroke-linejoin="miter" d="M 25.000488 25.001318 L 773.007608 24.996283 " stroke="#ffffff" stroke-width="50" stroke-opacity="1" stroke-miterlimit="4"/></g><g clip-path="url(#5fcaa0bf2d)"><path stroke-linecap="round" transform="matrix(-0.441311, 0.48718, -0.48718, -0.441311, 952.745585, 13.413161)" fill="none" stroke-linejoin="miter" d="M 15.002276 15.001658 L 431.08399 15.000602 " stroke="#ffffff" stroke-width="30" stroke-opacity="1" stroke-miterlimit="4"/></g><path stroke-linecap="round" transform="matrix(-0.657343, 0.00000000114728, -0.00000000114728, -0.657343, 856.707865, 229.016288)" fill="none" stroke-linejoin="miter" d="M 15.000098 14.999837 L 154.05422 14.999838 " stroke="#ffffff" stroke-width="30" stroke-opacity="1" stroke-miterlimit="4"/><path stroke-linecap="round" transform="matrix(0.198169, -0.626761, 0.626761, 0.198169, 798.095382, 361.723326)" fill="none" stroke-linejoin="miter" d="M 15.001889 14.998483 L 209.29849 14.999013 " stroke="#ffffff" stroke-width="30" stroke-opacity="1" stroke-miterlimit="4"/><g clip-path="url(#94a4c85bdc)"><path stroke-linecap="round" transform="matrix(0.419994, -0.505673, 0.505673, 0.419994, 799.911438, 354.752778)" fill="none" stroke-linejoin="miter" d="M 14.999081 15.001626 L 391.235811 14.998475 " stroke="#ffffff" stroke-width="30" stroke-opacity="1" stroke-miterlimit="4"/></g><g clip-path="url(#78a36a750f)"><path stroke-linecap="round" transform="matrix(0.242754, -0.610877, 0.610877, 0.242754, 868.989936, 172.471095)" fill="none" stroke-linejoin="miter" d="M 14.999244 14.997967 L 262.178666 14.998245 " stroke="#ffffff" stroke-width="30" stroke-opacity="1" stroke-miterlimit="4"/></g><g clip-path="url(#14f1aba823)"><path stroke-linecap="round" transform="matrix(0.656675, -0.0296238, 0.0296238, 0.656675, 871.609776, 157.641429)" fill="none" stroke-linejoin="miter" d="M 14.997111 14.999375 L 150.052414 15.000661 " stroke="#ffffff" stroke-width="30" stroke-opacity="1" stroke-miterlimit="4"/></g><g clip-path="url(#9cbe9c9dbe)"><g clip-path="url(#347c355875)"><g transform="matrix(1, 0, 0, 1, 0, 888)"><g clip-path="url(#8eecf2f2b7)"><g clip-path="url(#afc61d90db)"><g clip-path="url(#864cbb263b)"><path fill="#ffffff" d="M 0.300781 0.488281 L 114.328125 0.488281 L 114.328125 114.515625 L 0.300781 114.515625 Z M 0.300781 0.488281 " fill-opacity="1" fill-rule="nonzero"/></g></g></g></g></g></g></g></g></svg>